<svg width="16" height="15" viewBox="0 0 16 15" fill="none" xmlns="http://www.w3.org/2000/svg">
<path fill-rule="evenodd" clip-rule="evenodd" d="M15.5 7.5C15.5 3.35819 12.1418 0 8 0C3.85819 0 0.5 3.35819 0.5 7.5C0.5 11.2431 3.24226 14.346 6.82824 14.9094V9.66849H4.92343V7.5H6.82824V5.84726C6.82824 3.96776 7.94832 2.92889 9.66116 2.92889C10.4817 2.92889 11.3402 3.07548 11.3402 3.07548V4.92124H10.3942C9.46289 4.92124 9.17176 5.49922 9.17176 6.093V7.49994H11.2516L10.9194 9.66843H9.1717V14.9093C12.7577 14.3471 15.4999 11.2442 15.4999 7.49994L15.5 7.5Z" fill="#64748B"/>
</svg>
