<svg width="16" height="15" viewBox="0 0 16 15" fill="none" xmlns="http://www.w3.org/2000/svg">
<mask id="mask0_92_1290" style="mask-type:luminance" maskUnits="userSpaceOnUse" x="0" y="0" width="16" height="15">
<path d="M15.4095 0H0.5V15H15.4095V0Z" fill="white"/>
</mask>
<g mask="url(#mask0_92_1290)">
<path d="M15.4097 7.67242C15.4097 7.16258 15.3678 6.65 15.2783 6.14844H8.10449V9.03655H12.2126C12.0421 9.96803 11.4944 10.7921 10.6923 11.3156V13.1896H13.1432C14.5825 11.8833 15.4097 9.95425 15.4097 7.67242Z" fill="#64748B"/>
<path d="M8.1042 14.9998C10.1555 14.9998 11.8854 14.3357 13.1457 13.1892L10.6948 11.3153C10.0129 11.7728 9.13263 12.0318 8.10699 12.0318C6.1228 12.0318 4.44042 10.7117 3.83678 8.93701H1.30762V10.8688C2.59875 13.4015 5.22851 14.9998 8.1042 14.9998Z" fill="#64748B"/>
<path d="M3.83443 8.93721C3.51584 8.00574 3.51584 6.9971 3.83443 6.06563V4.13379H1.30807C0.22934 6.25303 0.22934 8.74981 1.30807 10.869L3.83443 8.93721Z" fill="#64748B"/>
<path d="M8.1042 2.96805C9.18852 2.95152 10.2365 3.35386 11.0218 4.09243L13.1932 1.95114C11.8183 0.677953 9.99338 -0.0220295 8.1042 1.71331e-05C5.2285 1.71331e-05 2.59875 1.5984 1.30762 4.13377L3.83398 6.06561C4.43482 4.28809 6.12 2.96805 8.1042 2.96805Z" fill="#64748B"/>
</g>
</svg>
