<svg width="16" height="15" viewBox="0 0 16 15" fill="none" xmlns="http://www.w3.org/2000/svg">
<path d="M8.00687 3.67828C7.87496 3.67828 7.74449 3.685 7.61595 3.69817C7.48741 3.71134 7.36064 3.73085 7.23603 3.75645C7.11143 3.78207 6.98903 3.81379 6.8691 3.85122L6.51704 3.98048L6.18187 4.14233L5.86558 4.33479L5.57004 4.55584L5.29734 4.80356L5.04938 5.07603L4.82809 5.37122L4.63539 5.68722L4.47345 6.02201C4.42477 6.13652 4.38147 6.25393 4.34399 6.37378C4.30651 6.49362 4.27479 6.61596 4.24913 6.74043C4.22347 6.86489 4.20396 6.9915 4.19074 7.11996C4.17753 7.24841 4.1709 7.37873 4.1709 7.51049C4.1709 7.64225 4.17763 7.77258 4.19074 7.90103C4.20379 8.02846 4.22327 8.15515 4.24913 8.28061C4.27479 8.40555 4.30651 8.52741 4.34399 8.64726C4.38147 8.76711 4.42472 8.88446 4.47345 8.99902L4.63539 9.33382L4.82809 9.64977L5.04938 9.94501L5.29734 10.2175L5.57004 10.4652L5.86558 10.6863L6.18187 10.8787L6.51704 11.0405L6.8691 11.1698L7.23603 11.2646C7.36161 11.2904 7.48841 11.3099 7.61595 11.3229C7.74584 11.3362 7.87632 11.3428 8.00687 11.3427C8.13877 11.3427 8.26924 11.3361 8.39774 11.3229C8.52528 11.3099 8.65209 11.2904 8.77766 11.2646L9.14465 11.1698L9.49669 11.0405L9.83183 10.8787L10.1482 10.6863L10.4437 10.4652L10.7165 10.2175L10.9645 9.94501L11.1857 9.64977L11.3784 9.33382L11.5404 8.99902L11.6698 8.64726C11.7073 8.52741 11.739 8.40507 11.7647 8.28061L11.823 7.90098C11.8362 7.77254 11.8429 7.64221 11.8429 7.51044C11.8429 7.37868 11.8362 7.24836 11.823 7.11991C11.81 6.99249 11.7905 6.86583 11.7647 6.74038C11.739 6.61544 11.7073 6.49362 11.6698 6.37372L11.5404 6.02197L11.3784 5.68717L11.1857 5.37117L10.9645 5.07597L10.7165 4.8035L10.4437 4.55579L10.1482 4.33474L9.83183 4.14229L9.49669 3.98044L9.14465 3.85117L8.77766 3.75641L8.39774 3.69812C8.26788 3.68486 8.13741 3.67826 8.00687 3.67828ZM8.00687 5.00101C8.09409 5.00101 8.18015 5.00534 8.26492 5.01389L8.5148 5.05171L8.75618 5.11321L8.98732 5.19717L9.20706 5.30241L9.4137 5.42759L9.60688 5.57161L9.78497 5.73316L9.94667 5.91106L10.0908 6.10405L10.2162 6.31096L10.3214 6.53058C10.353 6.60573 10.3811 6.68276 10.4055 6.76152C10.4299 6.84029 10.4504 6.92078 10.467 7.00275C10.4836 7.08473 10.4958 7.16816 10.5048 7.25288L10.5177 7.51073C10.5177 7.59786 10.5134 7.68387 10.5048 7.76864C10.4963 7.85341 10.4837 7.93683 10.467 8.01876C10.4503 8.10069 10.4298 8.18118 10.4055 8.25999L10.3214 8.49094L10.2162 8.71055L10.0908 8.91742L9.94667 9.11045L9.78497 9.28835L9.60688 9.44991L9.4137 9.59393L9.20706 9.71911L8.98732 9.82435L8.75618 9.9083L8.5148 9.96981L8.26492 10.0076C8.17916 10.0162 8.09301 10.0205 8.00683 10.0205C7.92061 10.0205 7.83445 10.0162 7.74868 10.0076L7.49879 9.96981C7.41676 9.95318 7.33622 9.93262 7.25737 9.9083L7.02623 9.82435L6.80648 9.71911L6.59985 9.59393L6.40667 9.44991L6.22858 9.28835L6.06688 9.11045L5.92271 8.91742L5.79739 8.71055L5.69215 8.49094L5.60805 8.25999L5.54654 8.01876L5.50873 7.76864C5.50013 7.68294 5.49583 7.59687 5.49585 7.51073C5.49583 7.42462 5.50013 7.33856 5.50873 7.25288C5.51723 7.16816 5.52987 7.08468 5.54654 7.00275C5.56305 6.92139 5.5836 6.84089 5.60811 6.76157L5.6922 6.53062L5.79744 6.31101L5.92276 6.1041L6.06692 5.91111L6.22863 5.73321L6.40671 5.57165L6.59989 5.42764L6.80652 5.30245L7.02627 5.19721C7.10191 5.16545 7.17908 5.13743 7.25746 5.11326L7.49889 5.05175C7.58092 5.03513 7.66444 5.02244 7.74877 5.01394C7.83455 5.00535 7.92066 5.001 8.00687 5.00101Z" fill="#64748B"/>
<path d="M11.9984 2.58838C11.968 2.58838 11.9376 2.58992 11.9073 2.59299C11.8769 2.59606 11.8468 2.60064 11.8169 2.60673C11.7871 2.61283 11.7576 2.62041 11.7285 2.62946C11.6993 2.63852 11.6708 2.64905 11.6427 2.66098C11.6146 2.67294 11.5873 2.68631 11.5605 2.70101C11.5337 2.7157 11.5078 2.73172 11.4827 2.74902C11.4575 2.76634 11.4332 2.78491 11.41 2.80467C11.3866 2.82441 11.3643 2.84531 11.3431 2.86729C11.3219 2.88927 11.3018 2.91233 11.2829 2.93634C11.2639 2.96036 11.2462 2.98531 11.2298 3.01111C11.2133 3.03689 11.1982 3.06348 11.1843 3.09079C11.1706 3.11811 11.1581 3.14611 11.147 3.17469C11.136 3.20325 11.1264 3.23237 11.1182 3.2619C11.1101 3.29144 11.1034 3.32137 11.0983 3.35158C11.0931 3.38177 11.0894 3.41221 11.0873 3.44279C11.0857 3.46443 11.085 3.48614 11.085 3.50785C11.085 3.53851 11.0864 3.56916 11.0895 3.59968C11.0926 3.63018 11.0971 3.6605 11.1032 3.69055C11.1092 3.72059 11.1167 3.75031 11.1257 3.77959C11.1348 3.80888 11.1452 3.8377 11.157 3.86594C11.1689 3.89419 11.1821 3.92183 11.1968 3.94874C11.2114 3.97565 11.2274 4.00181 11.2445 4.02712C11.2617 4.05241 11.2802 4.07682 11.2998 4.10025C11.3194 4.12371 11.3402 4.14617 11.362 4.16753C11.3839 4.18889 11.4067 4.20913 11.4307 4.22818C11.4545 4.24724 11.4793 4.26509 11.505 4.28166C11.5306 4.29823 11.557 4.3135 11.5841 4.32741C11.6113 4.34133 11.6391 4.35387 11.6675 4.36498C11.6959 4.3761 11.7248 4.38576 11.7541 4.39396C11.7835 4.40215 11.8132 4.40886 11.8432 4.41405C11.8732 4.41926 11.9035 4.42297 11.9338 4.42515C11.9554 4.42669 11.9769 4.42745 11.9985 4.42746C12.0289 4.42746 12.0594 4.42594 12.0898 4.42289C12.12 4.41983 12.1502 4.41524 12.18 4.40915C12.2099 4.40307 12.2393 4.39547 12.2685 4.38642C12.2976 4.37736 12.3262 4.36684 12.3542 4.3549C12.3823 4.34295 12.4098 4.32961 12.4364 4.31491C12.4632 4.30021 12.4891 4.28417 12.5143 4.26686C12.5394 4.24956 12.5637 4.231 12.587 4.21126C12.6103 4.1915 12.6326 4.1706 12.6538 4.1486C12.6751 4.12661 12.6952 4.10356 12.714 4.07955C12.733 4.05552 12.7507 4.03058 12.7671 4.00477C12.7836 3.97898 12.7988 3.95237 12.8126 3.92506C12.8264 3.89772 12.8389 3.86972 12.85 3.84115C12.861 3.81258 12.8706 3.78347 12.8787 3.75393C12.8868 3.7244 12.8935 3.69447 12.8987 3.66426C12.9039 3.63407 12.9076 3.60362 12.9096 3.57306C12.9112 3.5514 12.912 3.5297 12.912 3.50799C12.912 3.47734 12.9105 3.4467 12.9075 3.4162C12.9044 3.3857 12.8999 3.35538 12.8938 3.32534C12.8878 3.2953 12.8802 3.26558 12.8712 3.2363C12.8621 3.207 12.8517 3.17818 12.8399 3.14994C12.828 3.12169 12.8148 3.09406 12.8002 3.06714C12.7856 3.04023 12.7696 3.01408 12.7525 2.98876C12.7352 2.96345 12.7167 2.93904 12.6971 2.91558C12.6775 2.89213 12.6567 2.86967 12.635 2.84831C12.6131 2.82695 12.5902 2.80671 12.5663 2.78766C12.5425 2.76861 12.5177 2.75077 12.492 2.73422C12.4664 2.71765 12.44 2.70238 12.4128 2.68847C12.3856 2.67456 12.3578 2.66201 12.3294 2.6509C12.3011 2.63979 12.2721 2.63012 12.2428 2.62192C12.2135 2.61371 12.1837 2.60699 12.1537 2.60179C12.1237 2.59659 12.0935 2.59289 12.0631 2.59073C12.0415 2.58919 12.02 2.58838 11.9984 2.58838Z" fill="#64748B"/>
<path d="M7.27905 0.0133234C6.86184 0.0126505 6.48952 0.0143803 6.15506 0.0190896L5.25837 0.0431167C4.99273 0.0546496 4.75803 0.0696895 4.54736 0.0891515C4.44203 0.0988584 4.34265 0.109718 4.24847 0.121684C4.15883 0.132981 4.06946 0.146135 3.98037 0.161137C3.89555 0.175554 3.81506 0.191123 3.73788 0.208037C3.66072 0.224953 3.587 0.243213 3.51587 0.26282C3.44635 0.281991 3.37736 0.30308 3.30901 0.326059C3.24202 0.348645 3.17666 0.372576 3.11212 0.39814C2.98305 0.449271 2.85715 0.506646 2.7275 0.570942C2.62774 0.620438 2.53557 0.670558 2.44802 0.72361C2.36047 0.776662 2.27752 0.832693 2.19631 0.893723C2.11268 0.956878 2.03206 1.02394 1.95475 1.09469C1.87391 1.1683 1.79136 1.24927 1.70558 1.33976C1.5978 1.45284 1.50414 1.55826 1.42101 1.66172C1.37944 1.71343 1.34051 1.76456 1.30385 1.81598C1.26759 1.86665 1.23293 1.91845 1.19991 1.97128C1.16723 2.02367 1.13629 2.07701 1.10668 2.13189C1.07662 2.18771 1.04821 2.24441 1.02148 2.3019C0.966798 2.41935 0.915765 2.54582 0.864827 2.68701C0.827038 2.79138 0.7932 2.89715 0.763384 3.00406C0.732967 3.11335 0.705912 3.22767 0.681788 3.3513C0.657666 3.47495 0.636618 3.60792 0.618117 3.75496C0.59818 3.91615 0.582254 4.0778 0.570351 4.23978C0.556896 4.41787 0.545748 4.61383 0.536617 4.83195L0.514993 5.55719L0.503364 6.44124L0.5 7.50981L0.509851 9.06374L0.540606 10.2411L0.564296 10.7009L0.593898 11.0821C0.603387 11.1848 0.615259 11.2872 0.629506 11.3893C0.64248 11.4801 0.656417 11.5595 0.671409 11.6282C0.701831 11.7679 0.737804 11.9063 0.779243 12.0432C0.81892 12.1742 0.864294 12.3034 0.915235 12.4305C0.965308 12.555 1.02009 12.675 1.07968 12.7905C1.13926 12.906 1.20366 13.0171 1.27286 13.1237C1.34205 13.2303 1.41606 13.3326 1.49506 13.4305C1.57397 13.5284 1.6579 13.6221 1.74653 13.7113C1.83528 13.8007 1.92889 13.8857 2.02755 13.9665C2.12736 14.0483 2.23113 14.1252 2.33846 14.1967C2.43807 14.2633 2.53663 14.3243 2.63591 14.3803C2.73519 14.4363 2.83533 14.4871 2.93827 14.5333C3.0412 14.5794 3.14673 14.621 3.25697 14.6584C3.3672 14.6958 3.48205 14.729 3.60344 14.7585C3.72482 14.7881 3.85331 14.8139 3.98931 14.8365C4.1253 14.8591 4.27066 14.8785 4.42598 14.8952C4.58129 14.9118 4.74698 14.9256 4.92502 14.9372C5.10306 14.9487 5.29335 14.9579 5.49782 14.9653C5.81369 14.9767 6.29182 14.9834 6.8432 14.986L8.62817 14.9824L10.3184 14.9587L10.9611 14.9406L11.3798 14.9191C11.4697 14.9117 11.5576 14.9031 11.6425 14.893C11.7274 14.8829 11.811 14.8713 11.8926 14.8581C11.974 14.845 12.0537 14.8303 12.132 14.8139C12.2094 14.7978 12.2863 14.7798 12.3628 14.76C12.4385 14.7407 12.5132 14.7188 12.5872 14.6956C12.661 14.6725 12.7342 14.6474 12.807 14.6204C12.8801 14.5933 12.9525 14.5644 13.0242 14.5339C13.0964 14.5031 13.1685 14.4703 13.2409 14.4354C13.3521 14.3818 13.4415 14.3372 13.5201 14.2936C13.594 14.2531 13.6652 14.2078 13.7332 14.1579C13.8003 14.1085 13.867 14.0523 13.9438 13.9814C14.0207 13.9106 14.1079 13.8253 14.2157 13.7174C14.3106 13.6226 14.3905 13.5402 14.4595 13.4653C14.5284 13.3904 14.5865 13.323 14.6375 13.258C14.686 13.1963 14.7312 13.1322 14.773 13.0657C14.8137 13.0008 14.8512 12.9334 14.8894 12.8587C14.9469 12.7463 14.998 12.6422 15.0437 12.5416C15.0882 12.4449 15.1288 12.3462 15.1655 12.2462C15.2016 12.1469 15.233 12.046 15.2594 11.9437C15.2864 11.8385 15.3098 11.7274 15.33 11.6055C15.3501 11.4836 15.3672 11.351 15.382 11.2029C15.3967 11.0549 15.4094 10.8911 15.4204 10.7073L15.4498 10.0899L15.4749 9.32213L15.4929 8.46676L15.4998 7.57239L15.4837 5.81576L15.4623 5.02897L15.433 4.35343L15.3964 3.82675C15.3832 3.68019 15.3688 3.56476 15.3537 3.48672C15.3369 3.40049 15.3181 3.31467 15.2974 3.22929C15.2772 3.14623 15.255 3.06367 15.2308 2.98168C15.2073 2.90179 15.1816 2.82252 15.154 2.74395C15.1267 2.66635 15.0978 2.59037 15.0675 2.51603C15.0373 2.44169 15.0045 2.36909 14.9704 2.29801C14.9362 2.22694 14.9005 2.1576 14.863 2.08983C14.8254 2.02208 14.7863 1.95601 14.7454 1.89156C14.7046 1.82713 14.662 1.76431 14.6176 1.70319C14.5735 1.64226 14.5275 1.58273 14.4797 1.52467C14.4321 1.46694 14.3827 1.41072 14.3315 1.3561C14.2805 1.30155 14.2277 1.24864 14.1733 1.19743C14.1188 1.1462 14.0628 1.09661 14.005 1.04865C13.9469 1.00053 13.8874 0.954234 13.8263 0.90982C13.7648 0.864953 13.7019 0.821974 13.6376 0.78094C13.5725 0.739323 13.5062 0.699645 13.4387 0.661957C13.3702 0.623639 13.3004 0.587295 13.2298 0.552971C13.1124 0.49593 13.0038 0.44533 12.8974 0.400448C12.7926 0.355904 12.6858 0.316342 12.5774 0.281898C12.4683 0.247538 12.3548 0.218082 12.2299 0.192661C12.1049 0.16724 11.9686 0.146049 11.8145 0.128028C11.6603 0.110008 11.4881 0.0954478 11.2911 0.0833383C11.0942 0.0712286 10.8727 0.0617131 10.6198 0.0540245L9.76032 0.0348031L8.67252 0.0219727L7.27953 0.0134187L7.27905 0.0133234ZM8.0025 1.33491L10.0113 1.34635L10.7691 1.36095C10.9778 1.36681 11.1371 1.37369 11.2304 1.38162C11.3521 1.39186 11.4678 1.40468 11.5786 1.42006C11.6849 1.43474 11.7907 1.45299 11.8957 1.47479C11.9966 1.49594 12.0929 1.51996 12.1851 1.54706C12.2772 1.57417 12.3652 1.60454 12.4496 1.63813C12.534 1.67172 12.6148 1.70867 12.6925 1.74914C12.7696 1.78929 12.8445 1.83348 12.9169 1.88152C12.9889 1.92933 13.0584 1.98086 13.1259 2.03636C13.1933 2.09186 13.2587 2.15135 13.3226 2.21497C13.3901 2.28211 13.4523 2.35048 13.5096 2.42102C13.5666 2.49114 13.6196 2.56462 13.6678 2.64106C13.7166 2.71861 13.7606 2.7991 13.7996 2.88205C13.8394 2.96664 13.8751 3.05601 13.9072 3.15101C13.9394 3.24602 13.9679 3.34698 13.9932 3.45487C14.0198 3.56924 14.042 3.68457 14.0599 3.80062C14.079 3.92364 14.0955 4.05482 14.1095 4.19528C14.1233 4.33574 14.1349 4.48553 14.1444 4.64579C14.152 4.77433 14.1586 4.94397 14.1642 5.1443L14.1783 5.8274L14.189 7.50064L14.1769 9.17229L14.1622 9.85342L14.1419 10.3488C14.1279 10.5808 14.1131 10.7758 14.0954 10.9455C14.0865 11.0304 14.0769 11.1089 14.0662 11.1826C14.0562 11.2522 14.0444 11.3214 14.0307 11.3904C14.0182 11.4533 14.0037 11.5158 13.9872 11.5779C13.9714 11.6369 13.9536 11.6956 13.9339 11.7536C13.914 11.8118 13.8925 11.8694 13.8691 11.9263C13.8445 11.9865 13.8184 12.046 13.791 12.105C13.7666 12.1576 13.741 12.2088 13.7139 12.2586C13.6872 12.308 13.6586 12.3563 13.6286 12.4037C13.5988 12.4507 13.5676 12.4963 13.5349 12.5405C13.5024 12.5844 13.4683 12.6273 13.4327 12.6688C13.3973 12.7103 13.3603 12.7503 13.3219 12.789C13.2834 12.8277 13.2435 12.865 13.2022 12.901C13.1609 12.9371 13.118 12.9717 13.0736 13.0051C13.0294 13.0384 12.9834 13.0704 12.936 13.101C12.8885 13.1317 12.8397 13.1611 12.7891 13.1892C12.7386 13.2173 12.6865 13.244 12.633 13.2696C12.5784 13.2955 12.5232 13.3198 12.4672 13.3424C12.4094 13.3657 12.3509 13.3874 12.2919 13.4075C12.1716 13.4484 12.045 13.4843 11.9115 13.5153C11.7726 13.5475 11.6323 13.5737 11.491 13.594C11.4366 13.6019 11.3119 13.6094 11.1331 13.6163L10.4519 13.6353L8.52062 13.6604L6.49918 13.6635L5.70532 13.6551L5.18984 13.639L4.80974 13.6123C4.69172 13.6024 4.58196 13.5913 4.47912 13.5787C4.37629 13.5662 4.28052 13.5523 4.19041 13.5364C4.10503 13.5217 4.02016 13.504 3.93597 13.4836C3.8592 13.465 3.78321 13.4432 3.7082 13.4184C3.63587 13.3943 3.56672 13.3679 3.49945 13.3388C3.43216 13.3098 3.36681 13.2779 3.30208 13.2431C3.23735 13.2083 3.1733 13.1706 3.10852 13.1293C3.05965 13.0983 3.01241 13.0668 2.96696 13.0336C2.9215 13.0003 2.87757 12.9671 2.83529 12.9323C2.793 12.8975 2.75239 12.8616 2.71323 12.8248C2.67432 12.788 2.63676 12.7499 2.60059 12.7105C2.56455 12.6711 2.53009 12.6307 2.49703 12.5888C2.46384 12.5467 2.43222 12.5034 2.40223 12.459C2.37178 12.4139 2.34298 12.3678 2.31587 12.3207C2.28848 12.2731 2.26244 12.2239 2.23769 12.1731C2.21252 12.1214 2.18904 12.0689 2.16729 12.0157C2.14519 11.9614 2.12423 11.9055 2.10453 11.8478C2.06512 11.7322 2.03053 11.6091 2.00045 11.478C1.97036 11.3468 1.9447 11.2075 1.92298 11.0589C1.90126 10.9105 1.88377 10.753 1.86983 10.5857C1.85955 10.4625 1.85138 10.2705 1.84513 10.0283L1.83206 9.16692L1.83686 6.97108L1.87469 4.87285L1.90352 4.13358L1.91985 3.88922C1.92553 3.82397 1.93139 3.77563 1.93739 3.7466C1.9572 3.65112 1.97713 3.56226 1.99775 3.47909C2.01701 3.40061 2.03844 3.32269 2.062 3.2454C2.08439 3.17245 2.10799 3.10412 2.13322 3.03939C2.15754 2.97668 2.18465 2.9151 2.21448 2.85481C2.24359 2.79619 2.27488 2.74005 2.30885 2.68542C2.34283 2.63078 2.3795 2.57778 2.41948 2.52506C2.45946 2.47235 2.50251 2.4203 2.54936 2.36754C2.59622 2.31478 2.64682 2.26149 2.7017 2.20656C2.76565 2.14224 2.83225 2.0806 2.90131 2.02179C2.96653 1.96631 3.03453 1.9142 3.10506 1.86567C3.1744 1.81761 3.24553 1.77485 3.31958 1.73553C3.39363 1.69623 3.47061 1.66071 3.55158 1.62876C3.63255 1.5968 3.71761 1.56821 3.80771 1.54226C3.90237 1.51571 3.99808 1.49305 4.09459 1.47436C4.19608 1.45447 4.30387 1.43712 4.41896 1.42198C4.53405 1.40685 4.65649 1.39377 4.78739 1.38243C4.8787 1.37455 5.03602 1.36753 5.24319 1.36163L5.99715 1.34673L8.00284 1.33447L8.0025 1.33491Z" fill="#64748B"/>
</svg>
