<svg width="18" height="15" viewBox="0 0 18 15" fill="none" xmlns="http://www.w3.org/2000/svg">
<mask id="mask0_92_1289" style="mask-type:luminance" maskUnits="userSpaceOnUse" x="0" y="0" width="18" height="15">
<path d="M17.4904 0H0.5V15H17.4904V0Z" fill="white"/>
</mask>
<g mask="url(#mask0_92_1289)">
<path d="M16.6564 14.0318C16.6929 14.0322 16.7291 14.0248 16.7627 14.0102C16.7963 13.9955 16.8265 13.9738 16.8517 13.9465C16.8768 13.9191 16.8963 13.8868 16.9089 13.8513C16.9215 13.8159 16.9268 13.7782 16.9247 13.7405C16.9247 13.5338 16.8044 13.4351 16.5574 13.4351H16.1582V14.517H16.3084V14.0454H16.4928L16.497 14.0512L16.7833 14.517H16.9438L16.6358 14.0348L16.6564 14.0318ZM16.4828 13.9235H16.3088V13.5578H16.5294C16.6434 13.5578 16.7733 13.577 16.7733 13.7315C16.7733 13.9092 16.6418 13.9235 16.4819 13.9235" fill="#64748B"/>
<path d="M12.741 12.6759H10.6123V9.22384C10.6123 8.40066 10.5981 7.34097 9.50519 7.34097C8.39651 7.34097 8.22687 8.23786 8.22687 9.1639V12.6757H6.09819V5.57682H8.14172V6.54695H8.17033C8.37484 6.18486 8.67036 5.88697 9.02542 5.68504C9.38048 5.48311 9.78179 5.38468 10.1866 5.40024C12.3441 5.40024 12.7419 6.86979 12.7419 8.78159L12.741 12.6759ZM3.69634 4.60645C3.45202 4.6065 3.21317 4.53152 3.01 4.39099C2.80683 4.25047 2.64848 4.05072 2.55494 3.81699C2.46141 3.58326 2.43689 3.32607 2.48451 3.07792C2.53213 2.82977 2.64974 2.60182 2.82248 2.42289C2.99521 2.24395 3.21529 2.12209 3.45491 2.07268C3.69453 2.02327 3.9429 2.04857 4.16864 2.14534C4.39438 2.24212 4.58733 2.40603 4.7231 2.61638C4.85888 2.82671 4.93137 3.07402 4.93141 3.32702C4.93145 3.49501 4.89952 3.66136 4.83746 3.81657C4.77541 3.97178 4.68445 4.11282 4.56977 4.23162C4.45508 4.35043 4.31891 4.44468 4.16904 4.50899C4.01918 4.57331 3.85856 4.60642 3.69634 4.60645ZM4.76067 12.6759H2.62979V5.57682H4.76067V12.6759ZM13.8023 0.00101357H1.56012C1.28227 -0.00223353 1.01451 0.108887 0.81573 0.309956C0.616945 0.511026 0.503391 0.785594 0.5 1.07333V13.8031C0.503275 14.091 0.616762 14.3657 0.81554 14.5671C1.01432 14.7683 1.28213 14.8797 1.56012 14.8765H13.8023C14.0808 14.8802 14.3494 14.7691 14.5489 14.5679C14.7484 14.3666 14.8627 14.0915 14.8666 13.8031V1.07241C14.8626 0.784105 14.7482 0.509224 14.5487 0.30816C14.3492 0.107095 14.0807 -0.00370765 13.8023 9.47284e-05" fill="#64748B"/>
<path d="M16.5015 12.9531C16.2425 12.9557 15.995 13.0644 15.8132 13.2554C15.6314 13.4465 15.5301 13.7043 15.5313 13.9725C15.5326 14.2406 15.6363 14.4974 15.8199 14.6866C16.0034 14.8758 16.2519 14.982 16.5109 14.982C16.7699 14.982 17.0183 14.8758 17.2019 14.6866C17.3855 14.4974 17.4893 14.2406 17.4905 13.9725C17.4918 13.7043 17.3904 13.4465 17.2086 13.2554C17.0268 13.0644 16.7793 12.9557 16.5203 12.9531H16.5015ZM16.5015 14.8658C16.3316 14.8689 16.1647 14.8195 16.0219 14.7242C15.8791 14.629 15.7667 14.4919 15.6991 14.3305C15.6316 14.1691 15.6116 13.9905 15.642 13.8175C15.6724 13.6444 15.7517 13.4845 15.8698 13.358C15.9878 13.2316 16.1395 13.1442 16.3056 13.107C16.4717 13.0698 16.6446 13.0845 16.8026 13.1491C16.9607 13.2136 17.0967 13.3254 17.1933 13.47C17.2901 13.6147 17.3432 13.7857 17.346 13.9617C17.346 13.9667 17.346 13.9716 17.346 13.9766C17.3509 14.2073 17.2669 14.4306 17.1127 14.5973C16.9586 14.764 16.7467 14.8604 16.5239 14.8654H16.5017" fill="#64748B"/>
</g>
</svg>
